<svg id="레이어_1" data-name="레이어 1" xmlns="http://www.w3.org/2000/svg" viewBox="0 0 2048 655.83">
  <g>
    <g>
      <path d="M638.0548,334.543c0,130.5962-105.88,236.4665-236.4665,236.4665-130.5993,0-236.4665-105.87-236.4665-236.4665,0-130.59,105.8672-236.46,236.4665-236.46C532.175,98.0828,638.0548,203.9531,638.0548,334.543Z" style="fill: #fff"/>
      <g>
        <path d="M512.5753,318.0612c-37.6124-25.5622-85.7662-15.153-111.0853,23.2806a78.3937,78.3937,0,0,1-65.2137,36.1211c-40.2724,0-67.75-28.3078-75.9175-57.5843,0,0-.3993-1.4824-.5038-1.8174-3.2105-12.2379-4.0222-18.05-4.0222-31.0353,0-69.9734,71.8493-147.9206,175.2441-147.9206,105.9258,0,166.5486,80.6344,182.2123,125.4612-.3136-.8426-.5686-1.5926-.8237-2.383-30.0516-87.6636-113.1678-150.6726-211.08-150.6726-123.1085,0-222.9735,99.8128-222.9735,223.0258,0,110.1049,79.4133,204.3428,189.5917,204.3428,87.83,0,146.8809-49.2422,173.9286-117.14C556.8058,384.5879,546.3015,340.9664,512.5753,318.0612Z" style="fill: #003764"/>
        <path d="M614.6545,268.896c-13.0654-43.7317-74.0786-129.7907-183.5776-129.7907-103.3948,0-175.2441,77.9472-175.2441,147.9206,0,12.9854.8117,18.7974,4.0222,31.0353a65.4532,65.4532,0,0,1-2.03-15.9125c0-72.8948,72.9684-123.3887,147.988-123.3887,101.5811,0,183.9063,82.3284,183.9063,183.8667A202.7522,202.7522,0,0,1,477.3673,544.2576v.0615C563.1706,513.2436,624.4421,431.05,624.4421,334.5367,624.4421,311.6932,621.38,291.5462,614.6545,268.896Z" style="fill: #e4032e"/>
      </g>
    </g>
    <g>
      <path d="M791.3953,221.7379l68.6207,114.195-22.5323,13.57L791.3953,270.13l-45.5765,81.1652-23.0441-13.57ZM767.0706,367.17V417.1H917.1135v24.58H739.418V367.17Zm144.4087-1.2784H883.8268V223.0185h27.6525v52.4891h32.0062v27.3955H911.4793Z" style="fill: #575757"/>
      <path d="M1089.43,281.3966a51.8218,51.8218,0,0,1-4.7368,22.0183,57.3663,57.3663,0,0,1-12.9323,17.924A59.0462,59.0462,0,0,1,1052.9414,333.5a62.1372,62.1372,0,0,1-46.3431,0,58.9744,58.9744,0,0,1-18.8191-12.1613,57.1864,57.1864,0,0,1-12.93-17.924,51.7233,51.7233,0,0,1-4.7369-22.0183,52.626,52.626,0,0,1,4.7369-22.1491,56.782,56.782,0,0,1,12.93-18.05,59.09,59.09,0,0,1,18.8191-12.1634,62.1655,62.1655,0,0,1,46.3431,0,59.162,59.162,0,0,1,18.8191,12.1634,56.9579,56.9579,0,0,1,12.9323,18.05A52.727,52.727,0,0,1,1089.43,281.3966ZM984.9632,347.456h27.1408v20.9948h120.341V347.456h27.1407V441.68H984.9632Zm77.8375-66.0594a32.01,32.01,0,0,0-9.6023-23.3012,31.38,31.38,0,0,0-23.1726-9.7286,33.2211,33.2211,0,0,0-33.03,33.03,31.3486,31.3486,0,0,0,9.7308,23.17,31.9827,31.9827,0,0,0,23.299,9.6023,32.7843,32.7843,0,0,0,32.7749-32.7727Zm69.6443,109.5866H1012.104v27.6525h120.341Zm-35.8479-121.6216h35.3361V223.0185h27.6525V341.0552h-27.6525V293.6863h-35.3361Z" style="fill: #575757"/>
      <path d="M1214.12,315.7069V225.3227h171.8065V247.855h-144.154v11.778h143.13v21.7636h-143.13v12.29h144.9228v22.0206h-72.7173v14.337H1402.57v22.7893H1197.7335V330.0439h88.3348v-14.337Zm140.5691,91.1508a44.2205,44.2205,0,0,1-4.0966,18.8191,50.362,50.362,0,0,1-11.5231,15.7483,61.9051,61.9051,0,0,1-17.5385,10.6258,59.2366,59.2366,0,0,1-42.632,0,57.8081,57.8081,0,0,1-17.41-10.6258,48.518,48.518,0,0,1-11.778-15.7483,44.1566,44.1566,0,0,1-4.0966-18.8191,44.7677,44.7677,0,0,1,4.0966-19.076,48.4866,48.4866,0,0,1,11.778-15.7461,57.8083,57.8083,0,0,1,17.41-10.6259,59.2366,59.2366,0,0,1,42.632,0,61.9054,61.9054,0,0,1,17.5385,10.6259,50.3281,50.3281,0,0,1,11.5231,15.7461A44.8318,44.8318,0,0,1,1354.689,406.8577Zm-27.3977-.2548a25.26,25.26,0,0,0-8.0647-18.8212,27.2075,27.2075,0,0,0-38.1521,0,25.9921,25.9921,0,0,0,0,37.64,27.2075,27.2075,0,0,0,38.1521,0A25.2454,25.2454,0,0,0,1327.2913,406.6029Z" style="fill: #575757"/>
      <path d="M1491.926,221.7379l68.6207,98.5774-22.0206,15.1058-46.6-67.5949-46.0883,69.3873-22.5324-15.1058Zm108.8178,176.9267a49.2287,49.2287,0,0,1-4.6084,21.1232,57.9739,57.9739,0,0,1-12.29,17.2837,60.5365,60.5365,0,0,1-18.5621,11.778,58.57,58.57,0,0,1-22.4039,4.3535,60.992,60.992,0,0,1-41.2251-16.1315,58.0134,58.0134,0,0,1-12.29-17.2837,49.2287,49.2287,0,0,1-4.6084-21.1232,50.1056,50.1056,0,0,1,4.6084-21.2518,57.493,57.493,0,0,1,12.29-17.41,60.9928,60.9928,0,0,1,41.2251-16.1316,58.57,58.57,0,0,1,22.4039,4.3536,60.4543,60.4543,0,0,1,18.5621,11.778,57.4546,57.4546,0,0,1,12.29,17.41A50.1056,50.1056,0,0,1,1600.7438,398.6646Zm-27.1407-.257a29.3464,29.3464,0,0,0-9.2168-21.6351,29.9826,29.9826,0,0,0-21.7636-9.0883,31.0385,31.0385,0,0,0-30.7255,30.7234,29.12,29.12,0,0,0,9.09,21.5087,29.75,29.75,0,0,0,21.635,8.962,30.19,30.19,0,0,0,21.7636-8.962A28.9238,28.9238,0,0,0,1573.6031,398.4076ZM1612.01,341.31h-27.6525V223.0185H1612.01v43.27h32.0061v27.3977H1612.01Z" style="fill: #575757"/>
      <path d="M1664.7518,364.0994H1869.588v24.58h-88.5919v57.3545h-27.9095V388.679h-88.3348Zm43.7841-109.077h117.268V226.8581h27.3955V334.1405H1681.1381V226.8581h27.3978Zm117.268,24.07h-117.268v30.7255h117.268Z" style="fill: #575757"/>
    </g>
  </g>
</svg>
